<svg viewBox="0 0 55.752 55.752" xmlns="http://www.w3.org/2000/svg">
    <path fill="#222" d="M 43.006 31.838 C 42.729 32.112 42.424 32.356 42.094 32.565 L 20.485 54.173 C 17.545 57.112 12.526 55.767 11.45 51.751 C 10.951 49.887 11.484 47.899 12.848 46.535 L 31.459 27.926 L 12.754 9.219 C 9.815 6.28 11.159 1.263 15.173 0.187 C 17.036 -0.313 19.024 0.22 20.388 1.584 L 42.094 23.287 C 42.424 23.495 42.729 23.739 43.006 24.014 C 44.042 25.049 44.61 26.462 44.58 27.926 C 44.611 29.39 44.043 30.803 43.006 31.838 Z" transform="matrix(-1, 0, 0, -1, 55.750225, 55.760094)"></path>
</svg>
