<svg xmlns="http://www.w3.org/2000/svg" viewBox="0 0 585.4 585.4">
    <path fill="#ddd"
          d="M292.7 0a171.4 171.4 0 0 0-171.2 171.2V269c0 1-1.4 3-2.5 3.3a528 528 0 0 0-23.6 8.4A23.7 23.7 0 0 0 81 302v224.6c0 8.8 6.1 18 14.3 21.2a533.6 533.6 0 0 0 394.7-.1 23.8 23.8 0 0 0 14.3-21.2V301.9c0-9-6.2-18-14.4-21.2a536 536 0 0 0-23.7-8.4c-1-.4-2.4-2.2-2.4-3.4v-97.7A171.3 171.3 0 0 0 292.7 0zM246 370.3a46.6 46.6 0 1 1 93.2 0 46 46 0 0 1-23.3 39.5v77a23.3 23.3 0 1 1-46.6 0v-77a46 46 0 0 1-23.3-39.5zm159-199.1v84.3a535 535 0 0 0-112.3-12 536.2 536.2 0 0 0-112.3 12v-84.3a112.4 112.4 0 0 1 224.6 0z"/>
</svg>
