<svg xmlns="http://www.w3.org/2000/svg" viewBox="0 0 511.9 511.9">
    <path d="M381.8 223.2a7.5 7.5 0 0 0 8.9-5.9 139.3 139.3 0 0 0 2.8-27.7A138 138 0 0 0 256 51.6a137.9 137.9 0 0 0 0 275.9 137 137 0 0 0 122.2-74.8c2-3.6.5-8.2-3.2-10-3.7-2-8.2-.6-10.1 3.1a122.1 122.1 0 0 1-109 66.6 122.8 122.8 0 0 1 0-245.7 122.8 122.8 0 0 1 120 147.6c-.8 4 1.9 8 6 8.9z"/>
    <path d="M339.4 161.6a7.5 7.5 0 0 0-6-5.1l-49-7-21.7-44.5c-2.5-5.6-11-5.6-13.5 0l-21.7 44.4-49 7c-6 .7-8.5 8.8-4 12.9l35.4 34.5-8.5 48.8c-1.2 6 5.6 11 11 8l43.6-23.2 43.6 23.1c5.3 3 12.2-2 11-8l-8.5-48.7 35.4-34.5a7.5 7.5 0 0 0 2-7.7zm-50.6 34.2a7.5 7.5 0 0 0-2.2 6.7l6.5 37.6-33.6-17.9a7.5 7.5 0 0 0-7 0l-33.7 17.9 6.5-37.6a7.5 7.5 0 0 0-2.2-6.7l-27.3-26.6 37.7-5.4a7.5 7.5 0 0 0 5.7-4.2l16.8-34.2 16.7 34.2a7.5 7.5 0 0 0 5.7 4.2l37.7 5.4z"/>
    <path d="m466.4 447.2-73.3-127.4A189.5 189.5 0 0 0 256 0c-32 0-63.7 8.2-91.5 23.7a7.5 7.5 0 0 0 7.2 13.2A173.7 173.7 0 0 1 256 15a174.4 174.4 0 0 1 0 349A174.4 174.4 0 0 1 144 56a7.5 7.5 0 0 0 1-10.6 7.5 7.5 0 0 0-10.6-1A189.5 189.5 0 0 0 119 320l-20.8 36c-5 8.4 8.2 16.1 13 7.6l18.9-32.8a187 187 0 0 0 80.3 42.7L145.7 486 129 433.7a7.5 7.5 0 0 0-8.7-5L67 440.3 93.7 394c2-3.6.8-8.2-2.8-10.3a7.5 7.5 0 0 0-10.2 2.7l-35.2 61.2c-3.3 5.4 2 12.7 8.1 11.1l63.3-14 19.6 62c1.8 6.2 10.7 7.1 13.7 1.5l75.7-131.5a189 189 0 0 0 30 2.4 189 189 0 0 0 30.4-2.4l45.4 79a7.5 7.5 0 0 0 6.5 3.7 7.4 7.4 0 0 0 3.8-1c3.6-2 4.8-6.7 2.7-10.3l-43-74.6a188.6 188.6 0 0 0 80.3-42.9L445 440l-53.5-11.7a7.5 7.5 0 0 0-8.7 5l-16.6 52.3-4-7a7.5 7.5 0 0 0-10.2-2.7 7.5 7.5 0 0 0-2.8 10.3l12.5 21.7c3 5.6 12 4.6 13.7-1.5l19.6-62 63.3 14c6.2 1.5 11.5-5.8 8.1-11.1z"/>
</svg>
