<svg xmlns="http://www.w3.org/2000/svg" viewBox="0 0 511.9 511.9">
    <path fill="#fd646f"
          d="m448.9 448.5-59-13-18.2 57.7a5 5 0 0 1-9.1 1l-73-126.7a181 181 0 0 0 92.5-51.9l72.2 125.5a5 5 0 0 1-5.4 7.4z"/>
    <path fill="#fd646f"
          d="m448.9 448.5-54.5-12a5 5 0 0 0-5.8 3.4l-17 53.3a5 5 0 0 1-9 1L300 385.6l-10.4-18.1a181 181 0 0 0 92.4-51.9l10.3 18 61.9 107.5a5 5 0 0 1-5.4 7.4z"/>
    <path fill="#fc4755"
          d="m448.9 448.5-54.5-12a5 5 0 0 0-5.8 3.4l5.8-18.3a5 5 0 0 1 5.9-3.3l46.9 10.4 7.1 12.4a5 5 0 0 1-5.4 7.4z"/>
    <path fill="#fd646f"
          d="m223.4 366-74 128.6a5 5 0 0 1-9.1-1l-17-53.3a5 5 0 0 0-5.8-3.3L63 449a5 5 0 0 1-5.4-7.4l69-119.7c25.7 24.4 60.3 38 96.8 44z"/>
    <g fill="#fc4755">
        <path d="M136.3 339.7 74.9 446.3 63 449a5 5 0 0 1-5.5-7.3l58.7-102 15.8-27.5c4.3 4 8.8 7.8 13.4 11.5zM156.6 482l-7.2 12.5a5 5 0 0 1-9.1-1l-17-53.3a5 5 0 0 0-5.8-3.4l18.7-4a5 5 0 0 1 5.8 3.3z"/>
        <path d="m128.2 318.8 48.7 22 46.5 25.2-12.4 21.6c-34.8-7-67-23.2-93.8-47l-1-1zm264.2 14.8-10.3-18-54.9 24.2-37.5 27.7 4.2 7.3 10.3 18 58.4 101.4a5 5 0 0 0 9-1l3.8-11.7-58-101c28-9.8 53.6-25.7 75-46.9z"/>
    </g>
    <path fill="#faa515"
          d="M437.5 189.6a181.7 181.7 0 0 1-143 177.9 181.6 181.6 0 0 1-38.5 4.1 180.6 180.6 0 0 1-120.6-46 154.6 154.6 0 0 1-4-3.7 185.6 185.6 0 0 1-13.4-14c-4-4.8-7.8-9.7-11.3-14.8a181.6 181.6 0 0 1-24.5-50.7A181.8 181.8 0 0 1 308.6 15.3 179.9 179.9 0 0 1 374 51.2a182 182 0 0 1 17.7 17.4 181.7 181.7 0 0 1 45.9 121z"/>
    <ellipse cx="256" cy="189.6" fill="#fad207" rx="130" ry="130.4"/>
    <path fill="#faa515"
          d="M386 189.6c0 72-58.2 130.3-130 130.3a130.2 130.2 0 0 1-129-146.4 130 130 0 0 0 258 0c.6 5.3 1 10.6 1 16z"/>
    <path fill="#faf063" fill-rule="evenodd"
          d="M256 59.2c-71.8 0-130 58.4-130 130.4a130.1 130.1 0 1 0 260 0c0-72-58.2-130.4-130-130.4zm0 245.7a115.3 115.3 0 0 1 0-230.7 115.3 115.3 0 0 1 0 230.7z"
          clip-rule="evenodd"/>
    <path fill="#faa515"
          d="m260.5 117.5 17.8 36.4a5 5 0 0 0 3.8 2.8l40.1 5.8a5 5 0 0 1 2.8 8.5l-29.1 28.3a5 5 0 0 0-1.4 4.5l6.9 40a5 5 0 0 1-7.3 5.3l-35.8-19a5 5 0 0 0-4.7 0l-35.8 19a5 5 0 0 1-7.3-5.3l7-40a5 5 0 0 0-1.5-4.5L187 171a5 5 0 0 1 2.7-8.5l40.1-5.8a5 5 0 0 0 3.8-2.8l17.9-36.4a5 5 0 0 1 9 0z"/>
    <path d="M381.8 223.2a7.5 7.5 0 0 0 8.9-5.9 139.3 139.3 0 0 0 2.8-27.7A138 138 0 0 0 256 51.6a137.9 137.9 0 0 0 0 275.9 137 137 0 0 0 122.2-74.8c2-3.6.5-8.2-3.2-10-3.7-2-8.2-.6-10.1 3.1a122.1 122.1 0 0 1-109 66.6 122.8 122.8 0 0 1 0-245.7 122.8 122.8 0 0 1 120 147.6c-.8 4 1.9 8 6 8.9z"/>
    <path d="M339.4 161.6a7.5 7.5 0 0 0-6-5.1l-49-7-21.7-44.5c-2.5-5.6-11-5.6-13.5 0l-21.7 44.4-49 7c-6 .7-8.5 8.8-4 12.9l35.4 34.5-8.5 48.8c-1.2 6 5.6 11 11 8l43.6-23.2 43.6 23.1c5.3 3 12.2-2 11-8l-8.5-48.7 35.4-34.5a7.5 7.5 0 0 0 2-7.7zm-50.6 34.2a7.5 7.5 0 0 0-2.2 6.7l6.5 37.6-33.6-17.9a7.5 7.5 0 0 0-7 0l-33.7 17.9 6.5-37.6a7.5 7.5 0 0 0-2.2-6.7l-27.3-26.6 37.7-5.4a7.5 7.5 0 0 0 5.7-4.2l16.8-34.2 16.7 34.2a7.5 7.5 0 0 0 5.7 4.2l37.7 5.4z"/>
    <path d="m466.4 447.2-73.3-127.4A189.5 189.5 0 0 0 256 0c-32 0-63.7 8.2-91.5 23.7a7.5 7.5 0 0 0 7.2 13.2A173.7 173.7 0 0 1 256 15a174.4 174.4 0 0 1 0 349A174.4 174.4 0 0 1 144 56a7.5 7.5 0 0 0 1-10.6 7.5 7.5 0 0 0-10.6-1A189.5 189.5 0 0 0 119 320l-20.8 36c-5 8.4 8.2 16.1 13 7.6l18.9-32.8a187 187 0 0 0 80.3 42.7L145.7 486 129 433.7a7.5 7.5 0 0 0-8.7-5L67 440.3 93.7 394c2-3.6.8-8.2-2.8-10.3a7.5 7.5 0 0 0-10.2 2.7l-35.2 61.2c-3.3 5.4 2 12.7 8.1 11.1l63.3-14 19.6 62c1.8 6.2 10.7 7.1 13.7 1.5l75.7-131.5a189 189 0 0 0 30 2.4 189 189 0 0 0 30.4-2.4l45.4 79a7.5 7.5 0 0 0 6.5 3.7 7.4 7.4 0 0 0 3.8-1c3.6-2 4.8-6.7 2.7-10.3l-43-74.6a188.6 188.6 0 0 0 80.3-42.9L445 440l-53.5-11.7a7.5 7.5 0 0 0-8.7 5l-16.6 52.3-4-7a7.5 7.5 0 0 0-10.2-2.7 7.5 7.5 0 0 0-2.8 10.3l12.5 21.7c3 5.6 12 4.6 13.7-1.5l19.6-62 63.3 14c6.2 1.5 11.5-5.8 8.1-11.1z"/>
</svg>
