<svg xmlns="http://www.w3.org/2000/svg" viewBox="0 0 24 24"><path fill="#1976d2" d="M22.562 23.25h-8.716a.647.647 0 01-.576-.943l4.182-8.205a.648.648 0 01.566-.353c.273.019.463.125.578.334l4.534 8.205a.65.65 0 01-.568.962z"/><path fill="#2196f3" d="M13.243 13.2l-1.641 1.385a.783.783 0 01-.512.192.795.795 0 01-.565-.234l-1.034-1.034-1.034 1.034a.791.791 0 01-1.076.043l-1.577-1.322L.976 22.09a1 1 0 00.877 1.48h15.519a1 1 0 00.871-1.491z"/><path fill="#f44336" d="M14.655 4.483h-4.56a.595.595 0 01-.595-.595V1.112c0-.328.266-.595.595-.595h4.56a.594.594 0 01.451.982L14.249 2.5l.858 1.001a.596.596 0 01-.452.982z"/><path fill="#eceff1" d="M12.887 12.617l-1.753 1.481a.612.612 0 01-.831-.033l-.798-.798-.798.798a.61.61 0 01-.831.033l-1.703-1.432.609-1.103 2.18-3.991a.615.615 0 01.543-.321c.206-.025.428.115.535.313l2.23 3.958z"/><path d="M18.5 24H.75a.75.75 0 01-.658-1.11l8.75-16a.75.75 0 01.654-.39c.236-.013.524.145.658.382l9 16A.752.752 0 0118.5 24zM2.015 22.5h15.203L9.509 8.796z"/><path d="M9.5 8a.75.75 0 01-.75-.75V.75A.75.75 0 019.5 0h5.75a.75.75 0 01.569 1.239L14.738 2.5l1.082 1.262A.751.751 0 0115.25 5h-5v2.25A.75.75 0 019.5 8zm.75-4.5h3.369l-.438-.512a.75.75 0 010-.977l.438-.511H10.25zM11 15a.747.747 0 01-.53-.22l-.97-.97-.97.97a.75.75 0 01-1.008.048l-1.43-1.18a.75.75 0 01.955-1.157l.904.747L8.97 12.22a.75.75 0 011.061 0l1.018 1.018.904-.747a.751.751 0 01.955 1.157l-1.43 1.18A.75.75 0 0111 15zM23.25 24H18.5a.75.75 0 010-1.5h3.479l-3.951-7.15-1.659 3.26a.75.75 0 11-1.337-.681l2.3-4.52a.752.752 0 011.325-.023l5.25 9.5A.751.751 0 0123.25 24z"/></svg>