<svg xmlns="http://www.w3.org/2000/svg" viewBox="0 0 24 24"><path d="M18.5 24H.5a.5.5 0 01-.439-.74l9-16.5c.175-.321.703-.321.878 0l9 16.5a.502.502 0 01-.439.74zM1.342 23h16.315L9.5 8.044z"/><path d="M23.5 24h-5a.5.5 0 010-1h4.154l-4.625-8.41-1.906 3.944a.5.5 0 11-.9-.436l2.328-4.816a.501.501 0 01.437-.282.526.526 0 01.451.259l5.5 10A.5.5 0 0123.5 24zM9.5 7.5A.5.5 0 019 7V.5a.5.5 0 01.5-.5h6a.5.5 0 01.354.854L14.207 2.5l1.646 1.646A.499.499 0 0115.5 5H10v2a.5.5 0 01-.5.5zM10 4h4.293l-1.146-1.146a.5.5 0 010-.707L14.293 1H10zM11 15l-.036-.001a.497.497 0 01-.364-.199l-1.1-1.466L8.4 14.8a.503.503 0 01-.753.054l-1.68-1.68a.5.5 0 01.707-.707l1.272 1.272L9.1 12.2c.188-.252.611-.252.8 0l1.154 1.539 1.272-1.272a.5.5 0 01.707.707l-1.68 1.68A.499.499 0 0111 15z"/></svg>