<?xml version="1.0" standalone="no"?>
<!DOCTYPE svg PUBLIC "-//W3C//DTD SVG 20010904//EN"
 "http://www.w3.org/TR/2001/REC-SVG-20010904/DTD/svg10.dtd">
<svg version="1.0" xmlns="http://www.w3.org/2000/svg"
 width="700.000000pt" height="700.000000pt" viewBox="0 0 700.000000 700.000000"
 preserveAspectRatio="xMidYMid meet">
<metadata>
Created by potrace 1.11, written by Peter Selinger 2001-2013
</metadata>
<g transform="translate(0.000000,700.000000) scale(0.100000,-0.100000)"
fill="#000000" stroke="none">
<path d="M830 6558 c-68 -8 -134 -29 -184 -59 -85 -51 -168 -166 -196 -269
-18 -64 -18 -5381 -1 -5455 38 -161 189 -303 351 -330 45 -8 5343 -9 5390 -2
92 15 191 67 253 133 48 50 104 165 113 229 8 58 9 5357 1 5397 -34 170 -168
310 -334 349 -54 13 -5278 19 -5393 7z"/>
</g>
</svg>
